<?xml version="1.0" ?>
<!DOCTYPE svg  PUBLIC '-//W3C//DTD SVG 1.1//EN'  'http://www.w3.org/Graphics/SVG/1.1/DTD/svg11.dtd'>
<svg enable-background="new 0 0 512 512" height="512px" id="Crow" version="1.1" viewBox="0 0 512 512" width="512px" xml:space="preserve" xmlns="http://www.w3.org/2000/svg" xmlns:xlink="http://www.w3.org/1999/xlink"><g><circle cx="407.109" cy="131.493" r="3.742"/><path d="M475.757,134.383c-7.615-3.311-17.006-6.324-27.911-8.957c-2.254-0.545-4.935-1.048-7.968-1.494   c-5.374-0.791-10.258-3.18-14.124-6.909c-6.773-6.53-15.689-10.127-25.106-10.127c-20.949,0-31.278,13.54-37.927,25.436   l-0.093-0.047l-11.508,22.922l-0.117,0.393c-1.262,4.229-4.302,7.669-8.383,9.457l-194.67,87.551l-6.316,2.854l4.515,4.31   l0.079,0.146l0.694,0.58c0.298,0.247,0.932,0.754,1.878,1.42l-70.45,27.151l18.254,2.366c0.102,0.014,4.164,0.533,11.163,1.234   l-73.041,24.272l13.264,13.524l-14.675,26.936l117.42-42.344c4.325-0.113,25.515-0.932,63.481-6.548l32.969,8.823   c11.333,3.032,22.938,4.86,34.558,5.537l-10.334,18.471l17.674,40.396h-1.998c-8.751,0-15.871,7.119-15.871,15.87h9.336   c0-3.604,2.933-6.534,6.535-6.534h17.715c0.901,0,1.762,0.184,2.544,0.516c-4.549,2.793-7.599,7.8-7.599,13.518h9.336   c0-3.603,2.931-6.534,6.533-6.534h17.716c3.603,0,6.534,2.932,6.534,6.534h9.336c0-8.75-7.12-15.87-15.87-15.87h-5.813   l-24.449-44.657l16.553-23.644c15.863-2.585,31.204-7.392,45.313-14.372c7.676-3.798,14.906-8.674,21.488-14.49   c14.58-12.885,24.962-29.521,30.023-48.107c7.324-26.893,7.864-56.969,7.028-70.501c-0.851-13.783,19.963-21.999,21.703-22.66   c12.463-3.593,26.856-6.615,29.625-7.188c2.087-0.43,3.638-2.143,3.858-4.262C478.88,137.234,477.717,135.238,475.757,134.383z    M149.808,305.737l-0.784,0.012l-95.75,34.529l6.22-11.416l-7.63-7.78l79.531-26.429c8.276,0.57,17.682,1.092,27.828,1.437   c3.106,0.098,6.303,0.185,9.557,0.258l22.037,5.897C163.965,305.497,149.979,305.735,149.808,305.737z M292.093,343.974   l22.566,41.219c-2.711-2.158-6.135-3.457-9.86-3.457h-5.526l-17.45-39.888l10.447-18.676c4.972-0.011,9.931-0.24,14.859-0.675   L292.093,343.974z M414.154,174.038c0.8,12.961,0.285,41.756-6.718,67.473c-4.583,16.824-13.987,31.889-27.2,43.564   c-5.964,5.272-12.507,9.686-19.446,13.119c-33.235,16.444-73.765,20.133-111.192,10.118l-45.273-12.116   c12.125-0.382,23.71-1.107,34.647-2.186l0.249-0.023c6.703-0.664,13.131-1.464,19.316-2.382c6.112,0.431,12.026,0.651,17.737,0.651   c39.143,0,68.835-10.115,88.416-30.161c22.943-23.487,24.714-53.237,24.548-63.783c6.084-2.735,11.477-9.692,16.073-20.76   c3.463-8.337,5.394-16.371,5.804-18.166c0.55-1.248,5.332-10.703,25.066-14.771C427.67,148.942,413.201,158.612,414.154,174.038z    M402.182,156.636l-0.107,0.405c-2.883,13.192-10.452,32.221-18.257,33.218l-4.487,0.573l0.434,4.504   c0.032,0.345,3.035,34.862-21.752,60.236c-12.755,13.059-30.508,21.465-53.024,25.167c26.18-9.078,44.228-22.015,53.902-38.714   l-8.078-4.68c-14.743,25.447-52.52,41.37-112.282,47.329l-0.248,0.022c-20.591,2.04-43.527,2.828-68.178,2.341l-0.39-0.105   l-0.026,0.098c-0.045-0.001-0.09-0.002-0.135-0.002c-3.42-0.074-6.774-0.167-10.024-0.27c-16.854-0.573-31.629-1.637-42.495-2.596   l42.414-16.346c9.324,4.129,24.105,8.497,44.904,8.496c18.13,0,40.832-3.319,68.47-13.009l0.78-0.269   c1.633-0.578,3.282-1.176,4.953-1.803l-3.277-8.74c-1.36,0.51-2.706,1-4.04,1.477l-0.77,0.267   c-58.815,20.8-93.45,11.623-108.858,4.304c-0.688-0.328-1.336-0.651-1.941-0.966l186.74-83.985   c6.426-2.815,11.294-8.234,13.414-14.908l10.857-21.624l0.072,0.04c5.735-10.318,13.773-20.866,29.896-20.866   c6.987,0,13.602,2.669,18.626,7.513c5.277,5.089,11.933,8.348,19.244,9.425c1.902,0.28,3.621,0.582,5.164,0.898   C408.629,137.675,402.479,155.691,402.182,156.636z"/></g></svg>